<svg xmlns="http://www.w3.org/2000/svg" xmlns:xlink="http://www.w3.org/1999/xlink" width="1666" zoomAndPan="magnify" viewBox="0 0 1249.5 834.74997" height="1113" preserveAspectRatio="xMidYMid meet" version="1.0"><defs><clipPath id="d2d1a60e98"><path d="M 0 0.0429688 L 1249 0.0429688 L 1249 834.457031 L 0 834.457031 Z M 0 0.0429688 " clip-rule="nonzero"/></clipPath></defs><g clip-path="url(#d2d1a60e98)"><path fill="#ffffff" d="M 0 0.0429688 L 1249 0.0429688 L 1249 834.457031 L 0 834.457031 Z M 0 0.0429688 " fill-opacity="1" fill-rule="nonzero"/><path fill="#ffffff" d="M 0 0.0429688 L 1249 0.0429688 L 1249 834.457031 L 0 834.457031 Z M 0 0.0429688 " fill-opacity="1" fill-rule="nonzero"/></g><path fill="#364548" d="M 707.902344 304.703125 L 804.335938 304.703125 L 804.335938 403.300781 L 853.101562 403.300781 C 875.636719 403.300781 868.398438 436.140625 889.714844 428.902344 C 900.179688 425.363281 911.9375 420.410156 922.28125 414.195312 C 908.671875 396.417969 901.710938 374 899.667969 351.859375 C 896.875 321.773438 902.96875 282.601562 923.304688 259.042969 L 933.449219 247.324219 L 945.523438 257.039062 C 975.925781 281.460938 1001.527344 315.597656 1006.011719 354.535156 C 1042.625 343.757812 1085.613281 346.3125 1117.902344 364.957031 L 1131.152344 372.585938 L 1124.191406 386.191406 C 1096.898438 439.484375 1039.832031 455.960938 984.027344 453.050781 C 900.53125 661.023438 749.15625 722.613281 528.757812 722.613281 C 414.902344 722.613281 310.40625 680.058594 250.941406 579.023438 L 249.960938 577.371094 L 241.269531 559.75 C 221.171875 515.269531 214.484375 466.582031 219.007812 417.890625 L 220.382812 403.300781 L 302.855469 403.300781 L 302.855469 304.703125 L 399.289062 304.703125 L 399.289062 208.269531 L 592.15625 208.269531 L 592.15625 111.835938 L 707.902344 111.835938 Z M 707.902344 304.703125 " fill-opacity="1" fill-rule="nonzero"/><path fill="#22a0c8" d="M 989.925781 378.050781 C 996.375 327.789062 958.777344 288.34375 935.457031 269.582031 C 908.59375 300.652344 904.386719 382.101562 946.585938 416.398438 C 923.066406 437.28125 903.875 419.386719 853.101562 419.386719 L 235.054688 419.386719 C 230.136719 472.402344 239.417969 521.210938 260.65625 562.976562 L 267.695312 575.835938 C 272.140625 583.386719 277.015625 590.703125 282.246094 597.703125 C 307.652344 599.355469 331.09375 599.90625 352.527344 599.433594 C 394.648438 598.492188 429.023438 593.535156 455.058594 584.488281 C 458.992188 583.269531 463.121094 585.472656 464.339844 589.367188 C 465.519531 593.101562 463.550781 597.113281 459.894531 598.492188 C 456.433594 599.710938 452.816406 600.8125 449.078125 601.871094 C 428.589844 607.734375 406.566406 611.664062 378.210938 613.433594 C 379.902344 613.476562 376.441406 613.671875 376.441406 613.671875 C 375.457031 613.75 374.238281 613.867188 373.292969 613.90625 C 362.125 614.535156 350.089844 614.65625 337.742188 614.65625 C 324.25 614.65625 310.996094 614.417969 296.132812 613.632812 L 295.738281 613.867188 C 347.21875 671.761719 427.761719 706.449219 528.679688 706.449219 C 742.273438 706.449219 893.058594 648.636719 973.289062 436.023438 C 1030.199219 441.882812 1084.902344 427.332031 1109.800781 378.761719 C 1070.234375 355.988281 1019.265625 363.304688 989.925781 378.050781 Z M 989.925781 378.050781 " fill-opacity="1" fill-rule="nonzero"/><path fill="#37b1d9" d="M 989.925781 378.050781 C 996.375 327.789062 958.777344 288.34375 935.457031 269.582031 C 908.59375 300.652344 904.386719 382.101562 946.585938 416.398438 C 923.066406 437.28125 903.875 419.386719 853.101562 419.386719 L 271.628906 419.386719 C 269.113281 500.5625 299.238281 562.152344 352.527344 599.433594 C 394.648438 598.488281 429.023438 593.535156 455.058594 584.488281 C 458.992188 583.269531 463.121094 585.472656 464.339844 589.367188 C 465.519531 593.101562 463.550781 597.113281 459.894531 598.492188 C 456.433594 599.710938 452.816406 600.8125 449.078125 601.871094 C 428.589844 607.734375 404.675781 612.175781 376.320312 613.90625 L 375.613281 613.238281 C 448.292969 650.523438 553.734375 650.40625 674.550781 603.957031 C 810.035156 551.886719 905.761719 489.589844 993.742188 376.125 C 992.480469 376.792969 991.183594 377.421875 989.925781 378.050781 Z M 989.925781 378.050781 " fill-opacity="1" fill-rule="nonzero"/><path fill="#1b81a5" d="M 236.195312 483.769531 C 240.046875 512.164062 248.347656 538.75 260.65625 562.9375 L 267.695312 575.796875 C 272.140625 583.347656 277.015625 590.664062 282.246094 597.664062 C 307.652344 599.316406 331.09375 599.867188 352.527344 599.394531 C 394.648438 598.449219 429.023438 593.496094 455.058594 584.449219 C 458.992188 583.230469 463.121094 585.433594 464.339844 589.328125 C 465.519531 593.0625 463.550781 597.074219 459.894531 598.449219 C 456.433594 599.671875 452.816406 600.769531 449.078125 601.832031 C 428.589844 607.691406 404.796875 611.902344 376.441406 613.632812 C 375.457031 613.710938 373.765625 613.710938 372.78125 613.75 C 361.613281 614.378906 349.695312 614.773438 337.347656 614.773438 C 323.859375 614.773438 310.09375 614.496094 295.265625 613.75 C 346.746094 671.640625 427.761719 706.488281 528.71875 706.488281 C 711.597656 706.488281 870.679688 637.070312 963.023438 483.730469 L 236.195312 483.730469 Z M 236.195312 483.769531 " fill-opacity="1" fill-rule="nonzero"/><path fill="#1d91b4" d="M 277.214844 483.769531 C 288.148438 533.636719 314.417969 572.769531 352.566406 599.394531 C 394.6875 598.449219 429.0625 593.496094 455.097656 584.449219 C 459.03125 583.230469 463.160156 585.433594 464.378906 589.328125 C 465.558594 593.0625 463.59375 597.074219 459.933594 598.449219 C 456.472656 599.671875 452.855469 600.769531 449.117188 601.832031 C 428.628906 607.691406 404.363281 611.902344 375.96875 613.632812 C 448.648438 650.914062 553.773438 650.363281 674.589844 603.957031 C 747.699219 575.875 818.058594 534.070312 881.183594 483.6875 L 277.214844 483.6875 Z M 277.214844 483.769531 " fill-opacity="1" fill-rule="nonzero"/><path fill="#23a3c2" d="M 318.941406 320.789062 L 402.515625 320.789062 L 402.515625 404.363281 L 318.941406 404.363281 Z M 325.902344 327.75 L 332.511719 327.75 L 332.511719 397.402344 L 325.902344 397.402344 Z M 338.292969 327.75 L 345.132812 327.75 L 345.132812 397.402344 L 338.292969 397.402344 Z M 350.953125 327.75 L 357.796875 327.75 L 357.796875 397.402344 L 350.953125 397.402344 Z M 363.617188 327.75 L 370.460938 327.75 L 370.460938 397.402344 L 363.617188 397.402344 Z M 376.28125 327.75 L 383.125 327.75 L 383.125 397.402344 L 376.28125 397.402344 Z M 388.945312 327.75 L 395.554688 327.75 L 395.554688 397.402344 L 388.945312 397.402344 Z M 415.375 224.355469 L 498.949219 224.355469 L 498.949219 307.929688 L 415.335938 307.929688 Z M 422.335938 231.316406 L 428.945312 231.316406 L 428.945312 300.96875 L 422.335938 300.96875 Z M 434.726562 231.316406 L 441.566406 231.316406 L 441.566406 300.96875 L 434.726562 300.96875 Z M 447.386719 231.316406 L 454.230469 231.316406 L 454.230469 300.96875 L 447.386719 300.96875 Z M 460.050781 231.316406 L 466.894531 231.316406 L 466.894531 300.96875 L 460.050781 300.96875 Z M 472.714844 231.316406 L 479.558594 231.316406 L 479.558594 300.96875 L 472.714844 300.96875 Z M 485.378906 231.316406 L 491.988281 231.316406 L 491.988281 300.96875 L 485.378906 300.96875 Z M 485.378906 231.316406 " fill-opacity="1" fill-rule="nonzero"/><path fill="#34bbde" d="M 415.375 320.789062 L 498.949219 320.789062 L 498.949219 404.363281 L 415.335938 404.363281 Z M 422.335938 327.75 L 428.945312 327.75 L 428.945312 397.402344 L 422.335938 397.402344 Z M 434.726562 327.75 L 441.566406 327.75 L 441.566406 397.402344 L 434.726562 397.402344 Z M 447.386719 327.75 L 454.230469 327.75 L 454.230469 397.402344 L 447.386719 397.402344 Z M 460.050781 327.75 L 466.894531 327.75 L 466.894531 397.402344 L 460.050781 397.402344 Z M 472.714844 327.75 L 479.558594 327.75 L 479.558594 397.402344 L 472.714844 397.402344 Z M 485.378906 327.75 L 491.988281 327.75 L 491.988281 397.402344 L 485.378906 397.402344 Z M 485.378906 327.75 " fill-opacity="1" fill-rule="nonzero"/><path fill="#23a3c2" d="M 511.808594 320.789062 L 595.382812 320.789062 L 595.382812 404.363281 L 511.808594 404.363281 Z M 518.769531 327.75 L 525.378906 327.75 L 525.378906 397.402344 L 518.769531 397.402344 Z M 531.160156 327.75 L 538 327.75 L 538 397.402344 L 531.160156 397.402344 Z M 543.820312 327.75 L 550.664062 327.75 L 550.664062 397.402344 L 543.820312 397.402344 Z M 556.484375 327.75 L 563.328125 327.75 L 563.328125 397.402344 L 556.484375 397.402344 Z M 569.148438 327.75 L 576.03125 327.75 L 576.03125 397.402344 L 569.148438 397.402344 Z M 581.8125 327.75 L 588.421875 327.75 L 588.421875 397.402344 L 581.8125 397.402344 Z M 581.8125 327.75 " fill-opacity="1" fill-rule="nonzero"/><path fill="#34bbde" d="M 511.808594 224.355469 L 595.382812 224.355469 L 595.382812 307.929688 L 511.808594 307.929688 Z M 518.769531 231.316406 L 525.378906 231.316406 L 525.378906 300.96875 L 518.769531 300.96875 Z M 531.160156 231.316406 L 538 231.316406 L 538 300.96875 L 531.160156 300.96875 Z M 543.820312 231.316406 L 550.664062 231.316406 L 550.664062 300.96875 L 543.820312 300.96875 Z M 556.484375 231.316406 L 563.328125 231.316406 L 563.328125 300.96875 L 556.484375 300.96875 Z M 569.148438 231.316406 L 576.03125 231.316406 L 576.03125 300.96875 L 569.148438 300.96875 Z M 581.8125 231.316406 L 588.421875 231.316406 L 588.421875 300.96875 L 581.8125 300.96875 Z M 608.242188 320.789062 L 691.816406 320.789062 L 691.816406 404.363281 L 608.242188 404.363281 Z M 615.203125 327.75 L 621.808594 327.75 L 621.808594 397.402344 L 615.203125 397.402344 Z M 627.59375 327.75 L 634.433594 327.75 L 634.433594 397.402344 L 627.59375 397.402344 Z M 640.253906 327.75 L 647.097656 327.75 L 647.097656 397.402344 L 640.253906 397.402344 Z M 652.917969 327.75 L 659.761719 327.75 L 659.761719 397.402344 L 652.917969 397.402344 Z M 665.582031 327.75 L 672.425781 327.75 L 672.425781 397.402344 L 665.582031 397.402344 Z M 678.246094 327.75 L 684.855469 327.75 L 684.855469 397.402344 L 678.246094 397.402344 Z M 678.246094 327.75 " fill-opacity="1" fill-rule="nonzero"/><path fill="#23a3c2" d="M 608.242188 224.355469 L 691.816406 224.355469 L 691.816406 307.929688 L 608.242188 307.929688 Z M 615.203125 231.316406 L 621.808594 231.316406 L 621.808594 300.96875 L 615.203125 300.96875 Z M 627.59375 231.316406 L 634.433594 231.316406 L 634.433594 300.96875 L 627.59375 300.96875 Z M 640.253906 231.316406 L 647.097656 231.316406 L 647.097656 300.96875 L 640.253906 300.96875 Z M 652.917969 231.316406 L 659.761719 231.316406 L 659.761719 300.96875 L 652.917969 300.96875 Z M 665.582031 231.316406 L 672.425781 231.316406 L 672.425781 300.96875 L 665.582031 300.96875 Z M 678.246094 231.316406 L 684.855469 231.316406 L 684.855469 300.96875 L 678.246094 300.96875 Z M 678.246094 231.316406 " fill-opacity="1" fill-rule="nonzero"/><path fill="#34bbde" d="M 608.242188 127.921875 L 691.816406 127.921875 L 691.816406 211.496094 L 608.242188 211.496094 Z M 615.203125 134.882812 L 621.808594 134.882812 L 621.808594 204.535156 L 615.203125 204.535156 Z M 627.59375 134.882812 L 634.433594 134.882812 L 634.433594 204.535156 L 627.59375 204.535156 Z M 640.253906 134.882812 L 647.097656 134.882812 L 647.097656 204.535156 L 640.253906 204.535156 Z M 652.917969 134.882812 L 659.761719 134.882812 L 659.761719 204.535156 L 652.917969 204.535156 Z M 665.582031 134.882812 L 672.425781 134.882812 L 672.425781 204.535156 L 665.582031 204.535156 Z M 678.246094 134.882812 L 684.855469 134.882812 L 684.855469 204.535156 L 678.246094 204.535156 Z M 678.246094 134.882812 " fill-opacity="1" fill-rule="nonzero"/><path fill="#23a3c2" d="M 737.082031 320.789062 L 820.65625 320.789062 L 820.65625 404.363281 L 737.082031 404.363281 Z M 744.042969 327.75 L 750.652344 327.75 L 750.652344 397.402344 L 744.042969 397.402344 Z M 756.433594 327.75 L 763.273438 327.75 L 763.273438 397.402344 L 756.433594 397.402344 Z M 769.097656 327.75 L 775.9375 327.75 L 775.9375 397.402344 L 769.097656 397.402344 Z M 781.757812 327.75 L 788.601562 327.75 L 788.601562 397.402344 L 781.757812 397.402344 Z M 794.421875 327.75 L 801.265625 327.75 L 801.265625 397.402344 L 794.421875 397.402344 Z M 807.085938 327.75 L 813.695312 327.75 L 813.695312 397.402344 L 807.085938 397.402344 Z M 807.085938 327.75 " fill-opacity="1" fill-rule="nonzero"/><path fill="#d3ecec" d="M 493.71875 539.890625 C 506.460938 539.734375 516.921875 549.917969 517.078125 562.660156 C 517.234375 575.402344 507.050781 585.867188 494.308594 586.023438 C 494.109375 586.023438 493.875 586.023438 493.679688 586.023438 C 480.9375 585.867188 470.75 575.402344 470.945312 562.660156 C 471.144531 550.117188 481.210938 540.046875 493.71875 539.890625 Z M 493.71875 539.890625 " fill-opacity="1" fill-rule="nonzero"/><path fill="#364548" d="M 493.71875 546.417969 C 495.839844 546.417969 497.847656 546.8125 499.695312 547.519531 C 496.46875 549.40625 495.371094 553.5 497.257812 556.722656 C 498.476562 558.808594 500.679688 560.066406 503.078125 560.066406 C 505.632812 560.066406 507.835938 558.648438 508.976562 556.566406 C 512.476562 564.980469 508.464844 574.65625 500.050781 578.15625 C 491.632812 581.65625 481.957031 577.644531 478.457031 569.230469 C 474.957031 560.8125 478.96875 551.136719 487.386719 547.636719 C 489.390625 546.851562 491.554688 546.417969 493.71875 546.417969 Z M 493.71875 546.417969 " fill-opacity="1" fill-rule="nonzero"/><path fill="#bdd9d7" d="M 554.992188 706.015625 C 497.886719 678.917969 466.542969 642.066406 449.117188 601.871094 C 427.921875 607.929688 402.398438 611.785156 372.78125 613.472656 C 361.613281 614.105469 349.894531 614.417969 337.582031 614.417969 C 323.386719 614.417969 308.402344 613.984375 292.710938 613.160156 C 345.09375 665.507812 409.515625 705.78125 528.796875 706.527344 C 537.570312 706.527344 546.300781 706.371094 554.992188 706.015625 Z M 554.992188 706.015625 " fill-opacity="1" fill-rule="nonzero"/><path fill="#d3ecec" d="M 470.316406 639 C 462.410156 628.261719 454.742188 614.8125 449.117188 601.871094 C 427.921875 607.929688 402.398438 611.824219 372.78125 613.472656 C 393.15625 624.527344 422.257812 634.75 470.316406 639 Z M 470.316406 639 " fill-opacity="1" fill-rule="nonzero"/><path fill="#000000" d="M 540.046875 771.183594 C 430.515625 771.183594 345.960938 736.769531 288.816406 668.847656 C 234.1875 603.878906 207.128906 503.90625 221.445312 420.015625 C 223.882812 405.859375 236.15625 395.476562 250.511719 395.476562 L 851.488281 395.476562 C 861.910156 395.867188 870.71875 394.648438 878.3125 393.074219 C 862.933594 343.285156 875.164062 285.867188 898.878906 249.839844 L 911.820312 230.332031 C 916.144531 223.804688 922.910156 219.28125 930.578125 217.707031 C 938.328125 216.136719 946.230469 217.746094 952.761719 222.074219 L 972.109375 234.972656 C 1003.613281 259.238281 1024.378906 286.140625 1034.957031 315.753906 C 1068.859375 314.183594 1107.320312 319.648438 1130.171875 335.105469 L 1148.457031 347.375 C 1160.691406 355.554688 1164.976562 371.523438 1158.566406 384.777344 L 1156.558594 388.945312 C 1153.296875 395.671875 1148.539062 405.425781 1146.335938 409.515625 C 1111.882812 475.273438 1049.902344 486.207031 1013.484375 487.699219 C 930.304688 670.738281 762.960938 771.183594 540.046875 771.183594 Z M 276.898438 454.46875 C 273.554688 516.410156 295.109375 584.648438 334.003906 630.859375 C 379.429688 684.816406 448.726562 712.152344 540.085938 712.152344 C 744.789062 712.152344 896.363281 618.035156 966.839844 447.113281 C 971.480469 435.90625 982.21875 428.824219 994.683594 428.863281 C 1031.535156 429.613281 1071.808594 424.617188 1094.027344 382.300781 C 1080.773438 376.203125 1047.621094 371.40625 1018.085938 376.910156 C 1010.21875 378.484375 1001.960938 376.597656 995.390625 371.878906 C 988.824219 367.15625 984.5 359.960938 983.398438 351.976562 C 980.210938 328.773438 967.46875 307.890625 944.539062 288.421875 C 928.574219 317.605469 923.578125 363.816406 943.203125 394.058594 C 947.6875 400.941406 949.0625 409.4375 947.058594 417.421875 C 945.050781 425.402344 939.742188 432.167969 932.503906 436.101562 C 921.847656 441.882812 893.136719 455.53125 851.054688 454.507812 L 276.898438 454.507812 Z M 276.898438 454.46875 " fill-opacity="1" fill-rule="nonzero"/><path fill="#000000" d="M 843.503906 454.230469 L 285.667969 454.230469 C 269.386719 454.230469 256.171875 441.015625 256.171875 424.734375 L 256.171875 314.0625 C 256.171875 297.78125 269.386719 284.566406 285.667969 284.566406 L 843.503906 284.566406 C 859.789062 284.566406 873 297.78125 873 314.0625 L 873 424.734375 C 873 441.015625 859.789062 454.230469 843.503906 454.230469 Z M 315.167969 395.238281 L 814.007812 395.238281 L 814.007812 343.5625 L 315.167969 343.5625 Z M 315.167969 395.238281 " fill-opacity="1" fill-rule="nonzero"/><path fill="#000000" d="M 728.074219 343.5625 L 381.828125 343.5625 C 365.546875 343.5625 352.332031 330.347656 352.332031 314.0625 L 352.332031 203.433594 C 352.332031 187.148438 365.546875 173.933594 381.828125 173.933594 L 728.074219 173.933594 C 744.359375 173.933594 757.574219 187.148438 757.574219 203.433594 L 757.574219 314.0625 C 757.574219 330.386719 744.359375 343.5625 728.074219 343.5625 Z M 411.324219 284.566406 L 698.578125 284.566406 L 698.578125 232.929688 L 411.324219 232.929688 Z M 411.324219 284.566406 " fill-opacity="1" fill-rule="nonzero"/><path fill="#000000" d="M 728.074219 454.230469 L 612.648438 454.230469 C 596.363281 454.230469 583.152344 441.015625 583.152344 424.734375 L 583.152344 92.761719 C 583.152344 76.476562 596.363281 63.265625 612.648438 63.265625 L 728.074219 63.265625 C 744.359375 63.265625 757.574219 76.476562 757.574219 92.761719 L 757.574219 424.734375 C 757.574219 441.015625 744.359375 454.230469 728.074219 454.230469 Z M 642.144531 395.238281 L 698.578125 395.238281 L 698.578125 122.257812 L 642.144531 122.257812 Z M 642.144531 395.238281 " fill-opacity="1" fill-rule="nonzero"/><path fill="#000000" d="M 612.648438 454.230469 L 497.257812 454.230469 C 480.976562 454.230469 467.761719 441.015625 467.761719 424.734375 L 467.761719 203.433594 C 467.761719 187.148438 480.976562 173.933594 497.257812 173.933594 L 612.6875 173.933594 C 628.96875 173.933594 642.183594 187.148438 642.183594 203.433594 L 642.183594 424.734375 C 642.144531 441.015625 628.96875 454.230469 612.648438 454.230469 Z M 526.753906 395.238281 L 583.191406 395.238281 L 583.191406 232.929688 L 526.753906 232.929688 Z M 526.753906 395.238281 " fill-opacity="1" fill-rule="nonzero"/><path fill="#000000" d="M 497.257812 454.230469 L 381.828125 454.230469 C 365.546875 454.230469 352.332031 441.015625 352.332031 424.734375 L 352.332031 314.0625 C 352.332031 297.78125 365.546875 284.566406 381.828125 284.566406 L 497.257812 284.566406 C 513.539062 284.566406 526.753906 297.78125 526.753906 314.0625 L 526.753906 424.734375 C 526.753906 441.015625 513.539062 454.230469 497.257812 454.230469 Z M 411.324219 395.238281 L 467.761719 395.238281 L 467.761719 343.5625 L 411.324219 343.5625 Z M 411.324219 395.238281 " fill-opacity="1" fill-rule="nonzero"/><path stroke-linecap="butt" transform="matrix(0.7497, 0, 0, 0.7497, -37.79731, 80.484792)" fill="none" stroke-linejoin="miter" d="M 0.000580246 2.000245 L 577.361757 2.000245 " stroke="#ffffff" stroke-width="4" stroke-opacity="1" stroke-miterlimit="4"/></svg>